<svg width="48" height="48" viewBox="0 0 48 48" fill="none" xmlns="http://www.w3.org/2000/svg">
<circle opacity="0.5" cx="24" cy="24" r="23.5" stroke="white" stroke-dasharray="1 4"/>
<path d="M28.8519 18.9625C30.4428 19.7521 31.6117 21.2523 31.9197 23.0508L28.8519 26.1187V18.9625Z" fill="white"/>
<path d="M31.986 24.3988L28.8519 27.5329V29.025C30.6026 28.1678 31.8421 26.4392 31.986 24.3988Z" fill="white"/>
<path d="M20.037 20.25L24.3057 16.0128L26.3333 18.0404V25.6262L23.8148 23.1077V20.0375L21.0822 22.75H17.5185V25.25H21.0822L23.8148 27.9625V24.5219L26.3333 27.0404V28.6372L23.642 31.3285L20.037 27.75H18.4571L15 24.2929V20.25H20.037Z" fill="white"/>
<path d="M24.3518 32.033L26.3333 34V30.0514L24.3518 32.033Z" fill="white"/>
<path d="M26.3333 14V16.6262L25.0154 15.3083L26.3333 14Z" fill="white"/>
<path d="M15 25.7071V27.75H17.0429L15 25.7071Z" fill="white"/>
</svg>
